<svg id="Capa_1" enable-background="new 0 0 511.117 511.117" height="512" viewBox="0 0 511.117 511.117" width="512" xmlns="http://www.w3.org/2000/svg"><g><path d="m416.956 0h-322.795c-16.5 0-29.924 13.424-29.924 29.925v264.582c0 4.142 3.358 7.5 7.5 7.5s7.5-3.358 7.5-7.5v-198.978h130.506c4.142 0 7.5-3.358 7.5-7.5s-3.358-7.5-7.5-7.5h-130.506v-50.604c0-8.23 6.695-14.925 14.924-14.925h322.794c8.229 0 14.925 6.695 14.925 14.925v50.604h-192.137c-4.142 0-7.5 3.358-7.5 7.5s3.358 7.5 7.5 7.5h192.137v388.088c0 6.893-5.607 12.5-12.5 12.5h-327.643c-6.893 0-12.5-5.607-12.5-12.5v-159.11c0-4.142-3.358-7.5-7.5-7.5s-7.5 3.358-7.5 7.5v159.11c0 15.164 12.336 27.5 27.5 27.5h327.643c15.164 0 27.5-12.336 27.5-27.5v-453.692c0-16.501-13.424-29.925-29.924-29.925z"/><path d="m379.362 161.806h-247.382c-4.142 0-7.5 3.358-7.5 7.5s3.358 7.5 7.5 7.5h247.382c4.142 0 7.5-3.358 7.5-7.5s-3.358-7.5-7.5-7.5z"/><path d="m131.98 226.88h98.356c4.142 0 7.5-3.358 7.5-7.5s-3.358-7.5-7.5-7.5h-98.356c-4.142 0-7.5 3.358-7.5 7.5s3.358 7.5 7.5 7.5z"/><path d="m262.488 211.88c-4.142 0-7.5 3.358-7.5 7.5s3.358 7.5 7.5 7.5h54.698c4.142 0 7.5-3.358 7.5-7.5s-3.358-7.5-7.5-7.5z"/><path d="m379.362 211.88h-32.597c-4.142 0-7.5 3.358-7.5 7.5s3.358 7.5 7.5 7.5h32.597c4.142 0 7.5-3.358 7.5-7.5s-3.358-7.5-7.5-7.5z"/><path d="m131.98 276.954h247.382c4.142 0 7.5-3.358 7.5-7.5s-3.358-7.5-7.5-7.5h-247.382c-4.142 0-7.5 3.358-7.5 7.5s3.358 7.5 7.5 7.5z"/><path d="m131.98 327.027h118.586c4.142 0 7.5-3.358 7.5-7.5s-3.358-7.5-7.5-7.5h-118.586c-4.142 0-7.5 3.358-7.5 7.5s3.358 7.5 7.5 7.5z"/><path d="m381.074 312.027h-98.175c-4.142 0-7.5 3.358-7.5 7.5s3.358 7.5 7.5 7.5h98.175c4.142 0 7.5-3.358 7.5-7.5s-3.358-7.5-7.5-7.5z"/><path d="m131.98 377.101h247.382c4.142 0 7.5-3.358 7.5-7.5s-3.358-7.5-7.5-7.5h-247.382c-4.142 0-7.5 3.358-7.5 7.5s3.358 7.5 7.5 7.5z"/><path d="m131.98 427.174h169.303c4.142 0 7.5-3.358 7.5-7.5s-3.358-7.5-7.5-7.5h-169.303c-4.142 0-7.5 3.358-7.5 7.5s3.358 7.5 7.5 7.5z"/><path d="m379.362 412.174h-42.829c-4.142 0-7.5 3.358-7.5 7.5s3.358 7.5 7.5 7.5h42.829c4.142 0 7.5-3.358 7.5-7.5s-3.358-7.5-7.5-7.5z"/><path d="m326.435 53.543c0-4.142-3.358-7.5-7.5-7.5h-120.446c-4.142 0-7.5 3.358-7.5 7.5s3.358 7.5 7.5 7.5h120.446c4.142 0 7.5-3.358 7.5-7.5z"/></g></svg>