<svg height="512pt" viewBox="-31 0 512 512" width="512pt" xmlns="http://www.w3.org/2000/svg"><path d="m373 143.304688v-143.304688h-296v143.304688l-77 51.699218v316.996094h450v-316.996094zm-266-32.089844 81.214844-81.214844h73.570312l81.214844 81.214844v161.273437l-118 83.160157-118-83.160157zm65.25 243.960937-142.25 93.941407v-194.195313zm26.332031 18.558594 26.417969 18.617187 26.535156-18.703124 163.832032 108.351562h-380.71875zm79.28125-18.640625 142.136719-100.171875v194.175781zm142.136719-144.097656v7.222656l-47 33.125v-71.90625zm-77-142.210938-38.785156-38.785156h38.785156zm-197.214844-38.785156-38.785156 38.785156v-38.785156zm-68.785156 149.4375v71.90625l-47-33.125v-7.222656zm0 0"/><path d="m299 203c0-41.355469-33.644531-75-75-75s-75 33.644531-75 75 33.644531 75 75 75 75-33.644531 75-75zm-75 45c-24.8125 0-45-20.1875-45-45s20.1875-45 45-45 45 20.1875 45 45-20.1875 45-45 45zm0 0"/></svg>