<svg id="Capa_1" enable-background="new 0 0 510.46 510.46" height="512" viewBox="0 0 510.46 510.46" width="512" xmlns="http://www.w3.org/2000/svg"><g><path d="m291.624 495.46h-232.315c-18.371 0-33.316-14.945-33.316-33.316v-21.14h61.39c4.143 0 7.5-3.357 7.5-7.5s-3.357-7.5-7.5-7.5h-31.114v-409.397c0-.887.721-1.607 1.607-1.607h304.054c4.143 0 7.5-3.357 7.5-7.5s-3.357-7.5-7.5-7.5h-304.054c-9.157 0-16.607 7.45-16.607 16.607v409.396h-17.465c-7.064 0-12.812 5.747-12.812 12.812v23.328c0 26.642 21.675 48.316 48.316 48.316h232.315c4.143 0 7.5-3.357 7.5-7.5s-3.356-7.499-7.499-7.499z"/><path d="m291.624 426.004h-172.28c-4.143 0-7.5 3.357-7.5 7.5s3.357 7.5 7.5 7.5h172.28c4.143 0 7.5-3.357 7.5-7.5s-3.357-7.5-7.5-7.5z"/><path d="m393.892 15h38.549c.886 0 1.606.721 1.606 1.607v191.395c0 4.143 3.357 7.5 7.5 7.5s7.5-3.357 7.5-7.5v-191.395c0-9.157-7.449-16.607-16.607-16.607h-38.549c-4.143 0-7.5 3.357-7.5 7.5s3.358 7.5 7.501 7.5z"/><path d="m479.36 307.717v-18.377h1.978c9.997 0 18.13-8.134 18.13-18.131v-24.725c0-9.997-8.133-18.13-18.13-18.13h-96.175c-4.143 0-7.5 3.357-7.5 7.5s3.357 7.5 7.5 7.5h96.175c1.726 0 3.13 1.404 3.13 3.13v24.725c0 1.727-1.404 3.131-3.13 3.131h-149.553c-1.727 0-3.131-1.404-3.131-3.131v-24.725c0-1.726 1.404-3.13 3.131-3.13h21.415c4.143 0 7.5-3.357 7.5-7.5s-3.357-7.5-7.5-7.5h-21.415c-9.997 0-18.131 8.133-18.131 18.13v24.725c0 9.997 8.134 18.131 18.131 18.131h1.978v18.377c0 24.953 13.047 48.436 34.156 61.687-21.11 13.251-34.156 36.733-34.156 61.687v18.378h-1.978c-9.997 0-18.13 8.133-18.13 18.13v24.725c0 9.997 8.133 18.13 18.13 18.13h149.552c9.997 0 18.131-8.133 18.131-18.13v-24.725c0-9.997-8.134-18.13-18.131-18.13h-1.977v-18.379c0-25.268-12.753-48.27-34.155-61.687 21.403-13.416 34.155-36.418 34.155-61.686zm-15-18.377v17.98h-115.597v-17.98zm-87.349 92.085c1.769-1.055 3.238-2.445 4.359-4.061l17.233 10.157v21.383c-10.454.798-20.793 3.313-30.522 7.552l-18.952 8.258c2.005-17.801 12.3-34.001 27.882-43.289zm107.457 86.173v24.725c0 1.726-1.404 3.13-3.131 3.13h-149.552c-1.726 0-3.13-1.404-3.13-3.13v-24.725c0-1.726 1.404-3.13 3.13-3.13h149.552c1.726 0 3.131 1.404 3.131 3.13zm-135.705-18.13v-8.231l25.31-11.029c19.76-8.611 42.506-8.796 62.407-.503l27.881 11.619v8.145h-115.598zm115.271-24.531-21.785-9.078c-9.174-3.823-18.858-6.123-28.646-6.917v-22.362l18.161-9.808c1.19 2.01 2.868 3.74 4.955 5.019 15.538 9.522 25.448 25.349 27.315 43.146zm-27.315-67.92c-.099.061-31.455 17.02-31.455 17.02l-28.226-16.637c-.009-.005-.018-.012-.028-.018-13.14-7.833-22.522-20.582-26.344-35.062h111.847c-3.691 14.295-12.766 26.712-25.794 34.697z"/><path d="m103.363 75.42h17.666c4.143 0 7.5-3.357 7.5-7.5s-3.357-7.5-7.5-7.5h-17.666c-4.143 0-7.5 3.357-7.5 7.5s3.358 7.5 7.5 7.5z"/><path d="m387.91 60.42h-232.852c-4.143 0-7.5 3.357-7.5 7.5s3.357 7.5 7.5 7.5h232.852c4.143 0 7.5-3.357 7.5-7.5s-3.357-7.5-7.5-7.5z"/><path d="m387.91 115.06h-284.547c-4.143 0-7.5 3.357-7.5 7.5s3.357 7.5 7.5 7.5h284.547c4.143 0 7.5-3.357 7.5-7.5s-3.357-7.5-7.5-7.5z"/><path d="m395.41 177.2c0-4.143-3.357-7.5-7.5-7.5h-284.547c-4.143 0-7.5 3.357-7.5 7.5s3.357 7.5 7.5 7.5h284.547c4.143 0 7.5-3.357 7.5-7.5z"/><path d="m280.627 224.34h-177.264c-4.143 0-7.5 3.357-7.5 7.5s3.357 7.5 7.5 7.5h177.264c4.143 0 7.5-3.357 7.5-7.5s-3.357-7.5-7.5-7.5z"/><path d="m280.627 278.979h-177.264c-4.143 0-7.5 3.357-7.5 7.5s3.357 7.5 7.5 7.5h177.264c4.143 0 7.5-3.357 7.5-7.5s-3.357-7.5-7.5-7.5z"/><path d="m280.627 333.619h-177.264c-4.143 0-7.5 3.357-7.5 7.5s3.357 7.5 7.5 7.5h177.264c4.143 0 7.5-3.357 7.5-7.5s-3.357-7.5-7.5-7.5z"/></g></svg>