<?xml version="1.0" encoding="UTF-8"?>
 <svg version="1.1" id="Capa_1" xmlns="http://www.w3.org/2000/svg" xmlns:xlink="http://www.w3.org/1999/xlink" x="0px" y="0px"
 	 viewBox="0 0 250 250" style="enable-background:new 0 0 250 250;" xml:space="preserve">
    <g>
        <path d="M 65 10 C 62.238281 10 60 12.238281 60 15 L 60 37.859375 L 30 55 L 30 60 L 60 51.425781 L 60 70 L 50 80 L 50 85 L 65 80 L 80 85 L 80 80 L 70 70 L 70 51.425781 L 100 60 L 100 55 L 70 37.859375 L 70 15 C 70 12.238281 67.761719 10 65 10 Z M 125 10 C 109.035156 10 93.828125 13.289062 80 19.199219 L 80 30.195312 C 93.648438 23.683594 108.894531 20 125 20 C 137.269531 20 149.046875 22.128906 160 26.015625 L 160 30 C 159.460938 30 158.929688 30.085938 158.417969 30.253906 L 143.417969 35.253906 C 142.023438 35.722656 140.90625 36.777344 140.359375 38.144531 L 130.359375 63.144531 C 129.339844 65.707031 130.585938 68.613281 133.144531 69.640625 L 149.316406 76.113281 L 142.226562 80.839844 C 141.191406 81.53125 140.449219 82.582031 140.144531 83.789062 L 135.808594 101.125 L 123.417969 105.253906 C 121.773438 105.800781 120.53125 107.164062 120.132812 108.851562 C 119.734375 110.535156 120.238281 112.308594 121.464844 113.535156 L 126.464844 118.535156 C 127.988281 120.058594 130.3125 120.433594 132.234375 119.472656 L 142.234375 114.472656 C 142.71875 114.230469 143.15625 113.914062 143.535156 113.535156 L 155.984375 101.085938 L 172.761719 109.472656 C 174.3125 110.246094 176.15625 110.164062 177.628906 109.253906 C 179.101562 108.34375 180 106.734375 180 105 L 180 93.085938 L 183.613281 91.28125 L 198.300781 109.628906 L 187.929688 120 L 160 120 C 158.863281 120 157.761719 120.386719 156.875 121.09375 L 131.875 141.09375 C 130.6875 142.042969 130 143.480469 130 145 L 130 165 C 130 166.324219 130.527344 167.597656 131.464844 168.535156 L 146.464844 183.535156 C 147.402344 184.472656 148.675781 185 150 185 L 165 185 C 166.324219 185 167.597656 184.472656 168.535156 183.535156 L 177.070312 175 L 186.394531 175 L 190.253906 186.582031 C 190.605469 187.636719 191.300781 188.542969 192.226562 189.160156 L 202.34375 195.910156 C 194.625 204.316406 185.558594 211.464844 175.488281 217.011719 C 179.457031 218.230469 183.351562 219.140625 187.070312 219.601562 C 188.105469 219.730469 189.039062 219.710938 190.03125 219.777344 C 220.179688 199.027344 240 164.289062 240 125 C 240 61.589844 188.410156 10 125 10 Z M 170 30.273438 C 201.257812 45.183594 224.070312 75.007812 228.984375 110.558594 L 212.566406 100.714844 C 211.851562 100.28125 211.039062 100.035156 210.203125 100 C 208.808594 99.945312 207.453125 100.476562 206.464844 101.464844 L 205.417969 102.507812 L 191.699219 85.371094 L 198.09375 78.972656 C 199.632812 77.800781 200.355469 75.847656 199.949219 73.953125 C 199.953125 73.949219 199.953125 73.941406 199.949219 73.933594 C 199.917969 73.777344 199.875 73.621094 199.824219 73.464844 C 199.796875 73.378906 199.769531 73.289062 199.734375 73.203125 C 199.710938 73.132812 199.6875 73.066406 199.65625 72.996094 C 199.65625 72.996094 199.652344 72.992188 199.648438 72.988281 C 199.585938 72.839844 199.511719 72.691406 199.433594 72.546875 C 199.429688 72.546875 199.425781 72.542969 199.421875 72.539062 C 198.519531 70.898438 196.773438 69.898438 194.902344 69.949219 C 194.714844 69.957031 194.53125 69.972656 194.34375 70 L 185 70 C 182.238281 70 180 72.238281 180 75 L 180 81.914062 L 172.761719 85.527344 C 171.070312 86.375 170 88.105469 170 90 L 170 96.914062 L 157.234375 90.527344 C 155.3125 89.566406 152.988281 89.941406 151.464844 91.464844 L 147.566406 95.359375 L 149.386719 88.085938 L 161.796875 79.8125 C 163.761719 79.148438 165.109375 77.335938 165.183594 75.261719 L 169.746094 61.582031 C 170.34375 59.785156 169.875 57.804688 168.535156 56.464844 L 163.535156 51.464844 C 162.59375 50.496094 161.300781 49.953125 159.949219 49.949219 C 157.917969 49.953125 156.085938 51.183594 155.320312 53.070312 C 154.554688 54.957031 155.007812 57.117188 156.464844 58.535156 L 159.277344 61.347656 L 156.933594 68.386719 L 141.492188 62.214844 L 148.777344 44.011719 L 158.652344 40.722656 L 161.464844 43.535156 C 162.894531 44.964844 165.046875 45.390625 166.914062 44.617188 C 168.78125 43.84375 170 42.023438 170 40 Z M 36.777344 68.464844 L 22.824219 72.449219 C 14.671875 88.214844 10 106.058594 10 125 C 10 188.410156 61.589844 240 125 240 C 132.558594 240 139.945312 239.246094 147.097656 237.851562 C 142.195312 235.421875 137.320312 232.679688 132.519531 229.621094 C 130.03125 229.792969 127.535156 230 125 230 C 106.910156 230 89.875 225.394531 75 217.304688 L 75 200.8125 L 79.746094 186.582031 C 80.164062 185.324219 80.066406 183.949219 79.472656 182.765625 L 69.472656 162.765625 C 68.625 161.070312 66.894531 160 65 160 L 50.808594 160 L 36.582031 155.253906 C 36.070312 155.085938 35.539062 155 35 155 L 24.382812 155 C 23.078125 150.621094 22.039062 146.121094 21.308594 141.523438 L 37.996094 129.003906 C 38.917969 128.3125 39.574219 127.328125 39.851562 126.210938 L 44.851562 106.210938 C 45.21875 104.75 44.90625 103.207031 44.003906 102.003906 L 29.257812 82.34375 C 31.4375 77.523438 33.933594 72.878906 36.777344 68.46875 Z M 114.949219 69.949219 C 112.917969 69.953125 111.085938 71.183594 110.320312 73.070312 C 109.554688 74.957031 110.007812 77.117188 111.464844 78.535156 L 116.5625 83.632812 L 112.761719 85.527344 C 111.164062 86.324219 110.113281 87.917969 110.007812 89.699219 C 109.902344 91.484375 110.753906 93.1875 112.246094 94.171875 C 113.734375 95.15625 115.636719 95.273438 117.238281 94.472656 L 127.238281 89.472656 C 128.671875 88.753906 129.679688 87.386719 129.933594 85.800781 C 130.191406 84.214844 129.671875 82.601562 128.535156 81.464844 L 118.535156 71.464844 C 117.59375 70.496094 116.300781 69.953125 114.953125 69.949219 Z M 65 90.535156 L 60.039062 92.199219 C 60.3125 120.886719 73.335938 153.851562 96.054688 183.066406 C 119.804688 213.597656 154.570312 235.722656 184.617188 239.445312 C 187.484375 239.796875 190.265625 239.972656 192.949219 239.972656 C 203.632812 239.972656 212.796875 237.179688 219.753906 231.738281 C 231.910156 222.238281 236.902344 205.832031 234.355469 185.324219 C 231.515625 190.449219 228.308594 195.359375 224.773438 200.050781 C 223.914062 210.4375 220.222656 218.691406 213.601562 223.867188 C 207.035156 229.007812 197.433594 230.964844 185.847656 229.519531 C 158.71875 226.160156 125.800781 205.035156 103.945312 176.933594 C 82.890625 149.863281 70.355469 118.386719 70.039062 92.214844 Z M 25.019531 93.359375 L 34.570312 106.09375 L 30.578125 122.058594 L 20.128906 129.902344 C 20.050781 128.273438 20 126.644531 20 125 C 20 113.949219 21.800781 103.339844 25.019531 93.359375 Z M 210.769531 111.300781 L 229.941406 122.792969 C 229.957031 123.53125 230 124.257812 230 125 C 230 148.710938 222.058594 170.566406 208.75 188.15625 L 199.199219 181.789062 L 194.746094 168.417969 C 194.066406 166.375 192.152344 165 190 165 L 175 165 C 173.675781 165 172.402344 165.527344 171.464844 166.464844 L 162.929688 175 L 152.070312 175 L 140 162.929688 L 140 147.402344 L 161.757812 130 L 190 130 C 191.324219 130 192.597656 129.472656 193.535156 128.535156 L 208.242188 113.820312 C 208.300781 113.765625 208.359375 113.710938 208.417969 113.652344 L 208.601562 113.476562 C 208.625 113.449219 208.648438 113.425781 208.671875 113.398438 Z M 27.929688 165 L 34.191406 165 L 48.417969 169.746094 C 48.929688 169.914062 49.460938 170 50 170 L 61.914062 170 L 69.601562 185.378906 L 65.253906 198.417969 C 65.085938 198.929688 65 199.460938 65 200 L 65 211.042969 C 48.644531 199.605469 35.652344 183.671875 27.929688 165 Z M 27.929688 165 ">
        </path>
      </g>
      <g>
      </g>
      <g>
      </g>
      <g>
      </g>
      <g>
      </g>
      <g>
      </g>
      <g>
      </g>
      <g>
      </g>
      <g>
      </g>
      <g>
      </g>
      <g>
      </g>
      <g>
      </g>
      <g>
      </g>
      <g>
      </g>
      <g>
      </g>
      <g>
      </g>
  </svg>
